<svg id="Livello_1" data-name="Livello 1" xmlns="http://www.w3.org/2000/svg" viewBox="0 0 283.46 283.46"><defs><style>.cls-1{fill:#4d4945;}</style></defs><title>Tavola disegno 33 copia 2</title><path class="cls-1" d="M134.89,126.47H121.83a8.74,8.74,0,0,1-8.73-8.73V97.29a8.74,8.74,0,0,1,8.73-8.73h13.06a8.74,8.74,0,0,1,8.73,8.73v20.45A8.74,8.74,0,0,1,134.89,126.47ZM121.83,91.39a5.9,5.9,0,0,0-5.9,5.9v20.45a5.9,5.9,0,0,0,5.9,5.9h13.06a5.9,5.9,0,0,0,5.89-5.9V97.29a5.9,5.9,0,0,0-5.89-5.9Z"/><path class="cls-1" d="M142.39,132.85H114.32a5.52,5.52,0,0,1-5.51-5.51V89.58a5.52,5.52,0,0,1,5.51-5.51h28.07a5.52,5.52,0,0,1,5.51,5.51v37.76A5.52,5.52,0,0,1,142.39,132.85ZM114.32,86.9a2.68,2.68,0,0,0-2.68,2.68v37.76a2.68,2.68,0,0,0,2.68,2.68h28.07a2.68,2.68,0,0,0,2.68-2.68V89.58a2.68,2.68,0,0,0-2.68-2.68Z"/><rect class="cls-1" x="126.94" y="125.05" width="2.84" height="74.02"/><path class="cls-1" d="M161.64,181H148.58a8.74,8.74,0,0,1-8.73-8.73V151.81a8.74,8.74,0,0,1,8.73-8.73h13.06a8.74,8.74,0,0,1,8.73,8.73v20.46A8.74,8.74,0,0,1,161.64,181Zm-13.06-35.08a5.9,5.9,0,0,0-5.9,5.9v20.46a5.9,5.9,0,0,0,5.9,5.89h13.06a5.9,5.9,0,0,0,5.9-5.89V151.81a5.9,5.9,0,0,0-5.9-5.9Z"/><path class="cls-1" d="M169.14,187.37H141.07a5.52,5.52,0,0,1-5.51-5.51V144.1a5.52,5.52,0,0,1,5.51-5.51h28.07a5.52,5.52,0,0,1,5.51,5.51v37.76A5.52,5.52,0,0,1,169.14,187.37Zm-28.07-45.95a2.68,2.68,0,0,0-2.68,2.68v37.76a2.68,2.68,0,0,0,2.68,2.68h28.07a2.68,2.68,0,0,0,2.68-2.68V144.1a2.68,2.68,0,0,0-2.68-2.68Z"/><rect class="cls-1" x="153.69" y="179.58" width="2.84" height="19.82"/></svg>