<svg id="Livello_1" data-name="Livello 1" xmlns="http://www.w3.org/2000/svg" viewBox="0 0 283.46 283.46"><defs><style>.cls-1{fill:#4d4945;}</style></defs><title>Tavola disegno 33 copia 4</title><path class="cls-1" d="M153,122.1h-22.5a8.31,8.31,0,0,1-8.3-8.3V81.62a8.31,8.31,0,0,1,8.3-8.3H153a8.31,8.31,0,0,1,8.3,8.3V113.8A8.31,8.31,0,0,1,153,122.1Zm-22.5-45.95A5.47,5.47,0,0,0,125,81.62V113.8a5.47,5.47,0,0,0,5.46,5.47H153a5.47,5.47,0,0,0,5.46-5.47V81.62A5.47,5.47,0,0,0,153,76.15Z"/><path class="cls-1" d="M141.73,147.61a19.57,19.57,0,0,1-19.55-19.55V107.13a8.31,8.31,0,0,1,8.3-8.3H153a8.31,8.31,0,0,1,8.3,8.3v20.93A19.57,19.57,0,0,1,141.73,147.61Zm-11.25-45.95a5.47,5.47,0,0,0-5.46,5.47v20.93a16.71,16.71,0,0,0,33.42,0V107.13a5.47,5.47,0,0,0-5.46-5.47Z"/><rect class="cls-1" x="140.31" y="146.2" width="2.84" height="67.64"/><rect class="cls-1" x="121.71" y="69.3" width="40.04" height="10.87" rx="2.24" ry="2.24"/><path class="cls-1" d="M138.93,203.3h5.6a2.57,2.57,0,0,1,2.57,2.57v7.28a1,1,0,0,1-1,1h-8.73a1,1,0,0,1-1-1v-7.28A2.57,2.57,0,0,1,138.93,203.3Z"/></svg>