<svg id="Livello_1" data-name="Livello 1" xmlns="http://www.w3.org/2000/svg" viewBox="0 0 199.74 157.55"><defs><style>.cls-1{fill:#d1d3d4;}</style></defs><title>terapica_Tavola disegno 3 copia 12</title><path class="cls-1" d="M111.68,55.13a2.26,2.26,0,0,1,3.73.07,9.09,9.09,0,0,0,3.53,3,13.94,13.94,0,0,0,3.56,1.25,2,2,0,0,0,2.5-1.14,17.77,17.77,0,0,0,1.41-4.6c.66-2.94,1.11-5.92,1.89-8.84a8.2,8.2,0,0,1,1.91-3.52,43.34,43.34,0,0,1,6.61-6.24,2.3,2.3,0,0,1,1.47-.43c4.8.3,5,1.26,4.68,2.52a47.88,47.88,0,0,1-2.43,6.44,61.89,61.89,0,0,0-4.45,13.1,22.31,22.31,0,0,0-.42,3.94,38,38,0,0,1-1.39,8.13C133,74.28,131.55,79.68,129.84,85a5.28,5.28,0,0,1-2,2.81c-3.63,2.57-7.51,4.47-12.1,4.32a5.53,5.53,0,0,1-4.46-2.1A34,34,0,0,1,104,70.43a9.48,9.48,0,0,1,1-4.33,70.56,70.56,0,0,1,6.7-10.94Z"/><path class="cls-1" d="M111.95,47.29a11.77,11.77,0,0,1-3.87,9.35,38.81,38.81,0,0,0-9.46,14.64A52.35,52.35,0,0,0,96.1,81.81,111.93,111.93,0,0,1,93,96.1c-.44,1.47-.5,1.48-1.53.39A61.16,61.16,0,0,1,84.3,87c-1.93-3.06-3.88-6.12-5.69-9.25s-1.36-2.67.91-4.36c2.81-2.09,5.69-4.1,8.36-6.38A23.4,23.4,0,0,0,93.58,60a82.36,82.36,0,0,0,6.35-15.7c.53-1.89,0-3.65-.32-5.43-1-5.54-2-11.07-1.87-16.74a43.75,43.75,0,0,0-.92-7.16c-.46-3.17-1-6.33-1.51-9.5a8.66,8.66,0,0,1,.29-4C96,.11,96.54-.2,97.86.11A7.12,7.12,0,0,1,103.21,5a78.33,78.33,0,0,1,2,7.82c1.3,5.49,2.28,11.05,3.37,16.59.59,3,1.46,7.89,1.78,10.92a31.86,31.86,0,0,0,1.15,4.19A14.3,14.3,0,0,1,111.95,47.29Z"/><path class="cls-1" d="M97.49,46.15c0,2.9-1.28,4.54-3.87,5.16a3.32,3.32,0,0,1-3.2-.8,8.89,8.89,0,0,1-2.94-4.75c-1.11-5.4-2.86-10.63-4.27-16-.85-3.24-1.43-6.56-2.29-9.8-1-3.72-2.66-7.21-3.94-10.84C76.43,7.59,75.85,6,75.41,4.42a2.58,2.58,0,0,1,.73-2.75A6.26,6.26,0,0,1,78.52.17,2.21,2.21,0,0,1,81,.73,25.89,25.89,0,0,1,86,8.48c1.13,2.64,1.6,5.52,2.76,8.15,3.46,7.9,5.29,16.31,7.6,24.56C96.78,42.87,97.56,44.47,97.49,46.15Z"/><path class="cls-1" d="M89.06,54.52c.11,2.94-2.36,4.1-4.41,4.42a1.92,1.92,0,0,1-1.74-.78,14.15,14.15,0,0,1-2.69-4c-3.25-8-7.29-15.67-10.08-23.86a118.93,118.93,0,0,0-5.94-14.2A3,3,0,0,1,64.44,13c1.63-2.47,4.88-3.21,6.63-1,.58.94,1.19,1.87,1.71,2.84q4.41,8.24,8,16.85c1.81,4.3,3.43,8.67,5,13a34.77,34.77,0,0,0,1.52,3.49A13.41,13.41,0,0,1,89.06,54.52Z"/><path class="cls-1" d="M81.94,62.72c.06,4-2.49,5.37-4.56,5.75a3.18,3.18,0,0,1-2.51-.68,10,10,0,0,1-3.15-3.73C68.66,57.69,64.49,52,61,45.9a52.92,52.92,0,0,1-4.15-8.13,7.46,7.46,0,0,1-.62-3,2.09,2.09,0,0,1,.72-1.51,4.21,4.21,0,0,1,6.15.55,34.09,34.09,0,0,1,2.41,3.72A82.87,82.87,0,0,0,72.65,48c1,1.26,1.85,2.65,2.79,4a48.38,48.38,0,0,0,4.49,5.77A8,8,0,0,1,81.94,62.72Z"/><path class="cls-1" d="M1.94,145.09a6.26,6.26,0,0,0,.63,2.39,4.73,4.73,0,0,0,1.32,1.6,5.24,5.24,0,0,0,1.86.9,8.82,8.82,0,0,0,2.26.28,7.54,7.54,0,0,0,2.44-.35,4.61,4.61,0,0,0,1.67-1,3.74,3.74,0,0,0,1-1.39,4.58,4.58,0,0,0,.31-1.67,3.31,3.31,0,0,0-.56-2,4.31,4.31,0,0,0-1.45-1.25,8.92,8.92,0,0,0-2.06-.78l-2.38-.57q-1.22-.28-2.38-.66a7.47,7.47,0,0,1-2.06-1,5,5,0,0,1-1.45-1.66,5.28,5.28,0,0,1-.56-2.57A5.17,5.17,0,0,1,1,133.25a5.26,5.26,0,0,1,1.35-1.82,6.63,6.63,0,0,1,2.25-1.26,9.47,9.47,0,0,1,3.11-.47,8.93,8.93,0,0,1,3.13.5A6.22,6.22,0,0,1,13,131.57a5.62,5.62,0,0,1,1.32,2,6.73,6.73,0,0,1,.44,2.44H12.86a4.75,4.75,0,0,0-.43-2.08,3.92,3.92,0,0,0-1.16-1.44,5,5,0,0,0-1.67-.82,7.11,7.11,0,0,0-1.94-.26,6.82,6.82,0,0,0-2.57.43,4.51,4.51,0,0,0-1.66,1.1,3.72,3.72,0,0,0-.85,1.5,3.59,3.59,0,0,0-.09,1.64,2.87,2.87,0,0,0,.82,1.64,5.18,5.18,0,0,0,1.59,1,11.91,11.91,0,0,0,2.07.65l2.3.53a23.66,23.66,0,0,1,2.28.66,7,7,0,0,1,2,1,4.74,4.74,0,0,1,1.37,1.66,5.59,5.59,0,0,1,.51,2.54,5.49,5.49,0,0,1-2,4.55A8.93,8.93,0,0,1,7.66,152a10.52,10.52,0,0,1-3.05-.43,6.76,6.76,0,0,1-2.44-1.29,5.93,5.93,0,0,1-1.6-2.14,7.3,7.3,0,0,1-.57-3Z"/><path class="cls-1" d="M24.13,151.46q-.32.06-.85.21a4.39,4.39,0,0,1-1.17.15,2.8,2.8,0,0,1-2-.66,3.21,3.21,0,0,1-.69-2.36V137.66H17.26v-1.47h2.14V132h1.76v4.23H24v1.47H21.17v10.42q0,.56,0,1a1.62,1.62,0,0,0,.18.68.84.84,0,0,0,.45.38,2.52,2.52,0,0,0,.87.12,4.5,4.5,0,0,0,.72-.06q.37-.06.72-.15Z"/><path class="cls-1" d="M37.25,136.19H39V151.4H37.25v-2.11q-.35.41-.79.85a6,6,0,0,1-1,.81,5.78,5.78,0,0,1-1.34.62,5.68,5.68,0,0,1-1.76.25,6.7,6.7,0,0,1-2.55-.43,4.17,4.17,0,0,1-1.66-1.19,4.71,4.71,0,0,1-.91-1.78A8.32,8.32,0,0,1,27,146.2v-10h1.76v10a4.44,4.44,0,0,0,.91,3,3.79,3.79,0,0,0,3,1,4.37,4.37,0,0,0,2-.43A4.07,4.07,0,0,0,36,148.61a5.68,5.68,0,0,0,.91-1.82,7.91,7.91,0,0,0,.32-2.32Z"/><path class="cls-1" d="M55,130.26h1.76V151.4H55v-2.67H55a4.78,4.78,0,0,1-1,1.34,6,6,0,0,1-1.32,1,7.11,7.11,0,0,1-1.48.59,5.77,5.77,0,0,1-1.5.21,7.25,7.25,0,0,1-3.14-.62,5.85,5.85,0,0,1-2.13-1.69A6.88,6.88,0,0,1,43.19,147a12.44,12.44,0,0,1-.38-3.14,11.26,11.26,0,0,1,.41-3.05,7.57,7.57,0,0,1,1.25-2.57,6.18,6.18,0,0,1,2.11-1.76,6.46,6.46,0,0,1,3-.66,7,7,0,0,1,3.1.72A5.46,5.46,0,0,1,55,138.63Zm0,13.48a8.39,8.39,0,0,0-.35-2.45,6.35,6.35,0,0,0-1-2A5,5,0,0,0,52,137.88a4.48,4.48,0,0,0-2.16-.51,4.91,4.91,0,0,0-2.38.54,4.69,4.69,0,0,0-1.64,1.48,6.4,6.4,0,0,0-.94,2.19,9.91,9.91,0,0,0-.23,2.69,7.48,7.48,0,0,0,.4,2.54,5.42,5.42,0,0,0,1.1,1.86,4.69,4.69,0,0,0,1.64,1.16,5.23,5.23,0,0,0,2.06.4,4.74,4.74,0,0,0,2.2-.5,4.64,4.64,0,0,0,1.61-1.37,6.27,6.27,0,0,0,1-2.06A9.38,9.38,0,0,0,55,143.73Z"/><path class="cls-1" d="M61.39,132.87v-2.61h1.94v2.61Zm.09,18.52V136.19h1.76V151.4Z"/><path class="cls-1" d="M73.78,151.81a7.92,7.92,0,0,1-2.74-.53,6.14,6.14,0,0,1-2.23-1.5,7.18,7.18,0,0,1-1.51-2.5,10,10,0,0,1-.56-3.49,10.73,10.73,0,0,1,.44-3.13,7.39,7.39,0,0,1,1.32-2.54,6.28,6.28,0,0,1,2.2-1.72,7.08,7.08,0,0,1,3.08-.63,7.15,7.15,0,0,1,3.11.63,6.36,6.36,0,0,1,2.2,1.7,7,7,0,0,1,1.31,2.54,11.24,11.24,0,0,1,.43,3.14,10.18,10.18,0,0,1-.5,3.29,7.41,7.41,0,0,1-1.42,2.52,6.27,6.27,0,0,1-2.23,1.63A7.13,7.13,0,0,1,73.78,151.81Zm5.17-8a10.4,10.4,0,0,0-.29-2.52,6,6,0,0,0-.91-2,4.38,4.38,0,0,0-1.59-1.37,5.15,5.15,0,0,0-2.38-.5,4.82,4.82,0,0,0-2.36.54,4.63,4.63,0,0,0-1.6,1.44,6.33,6.33,0,0,0-.91,2.05,9.72,9.72,0,0,0-.29,2.39,9.47,9.47,0,0,0,.34,2.6,6.08,6.08,0,0,0,1,2,4.4,4.4,0,0,0,1.61,1.32,5,5,0,0,0,2.23.47,4.82,4.82,0,0,0,2.36-.54,4.57,4.57,0,0,0,1.6-1.45,6.52,6.52,0,0,0,.91-2.06A9.55,9.55,0,0,0,78.94,143.79Z"/><path class="cls-1" d="M99.53,130.27V134H93.2V151.4H88.76V134H82.41v-3.74Z"/><path class="cls-1" d="M109.79,136.09a6.36,6.36,0,0,1,2.7,2.31,7.68,7.68,0,0,1,1.24,3.23,20,20,0,0,1,.13,3.1H102.49a3.75,3.75,0,0,0,1.63,3.3,4.15,4.15,0,0,0,2.25.59,3.17,3.17,0,0,0,3.11-1.79h4.17a5.1,5.1,0,0,1-1.51,2.82,7.59,7.59,0,0,1-5.88,2.28,8.52,8.52,0,0,1-5.5-1.92q-2.38-1.92-2.38-6.26a8.46,8.46,0,0,1,2.15-6.23,7.53,7.53,0,0,1,5.59-2.17A8.9,8.9,0,0,1,109.79,136.09Zm-6.11,3.53a4.24,4.24,0,0,0-1.09,2.42h7a3.41,3.41,0,0,0-1.09-2.47,3.58,3.58,0,0,0-2.42-.84A3.24,3.24,0,0,0,103.68,139.62Z"/><path class="cls-1" d="M124.62,135.41l.35,0v4.19l-.69-.06h-.49q-2.47,0-3.31,1.61a6.24,6.24,0,0,0-.47,2.78v7.47H115.9V135.77h3.9v2.72a8.65,8.65,0,0,1,1.65-2.14,4.49,4.49,0,0,1,3-1Z"/><path class="cls-1" d="M133.55,141.89a6.45,6.45,0,0,0,1.63-.36,1.23,1.23,0,0,0,.88-1.16,1.37,1.37,0,0,0-.68-1.33,4.27,4.27,0,0,0-2-.37,2.6,2.6,0,0,0-2.08.72,3,3,0,0,0-.58,1.43h-3.94a6,6,0,0,1,1.15-3.37q1.63-2.06,5.59-2.06a10,10,0,0,1,4.58,1,3.9,3.9,0,0,1,2,3.84v7.17q0,.75,0,1.81a2.27,2.27,0,0,0,.24,1.09,1.46,1.46,0,0,0,.6.47v.6h-4.44a4.56,4.56,0,0,1-.26-.89q-.07-.42-.11-.95a8.44,8.44,0,0,1-2,1.56,5.93,5.93,0,0,1-3,.76,5.18,5.18,0,0,1-3.53-1.21,4.31,4.31,0,0,1-1.39-3.43,4.45,4.45,0,0,1,2.24-4.17,10,10,0,0,1,3.61-1Zm2.5,1.91a4.56,4.56,0,0,1-.79.39,6.72,6.72,0,0,1-1.1.28l-.93.17a6.12,6.12,0,0,0-1.88.56,1.87,1.87,0,0,0-1,1.73,1.81,1.81,0,0,0,.59,1.51,2.24,2.24,0,0,0,1.43.47,4.27,4.27,0,0,0,2.47-.77,3.28,3.28,0,0,0,1.17-2.82Z"/><path class="cls-1" d="M156.83,137.45q1.91,2,1.91,5.93,0,4.13-1.87,6.29a6.06,6.06,0,0,1-4.81,2.16,5,5,0,0,1-3.12-.93,6,6,0,0,1-1.33-1.51v8.14h-4V135.77h3.91v2.31a6.57,6.57,0,0,1,1.41-1.61,5.22,5.22,0,0,1,3.26-1A6.18,6.18,0,0,1,156.83,137.45Zm-3.14,2.94A2.91,2.91,0,0,0,151,139a3.07,3.07,0,0,0-3.08,2.11,7.92,7.92,0,0,0-.43,2.84q0,2.72,1.46,3.83a3.35,3.35,0,0,0,2.06.64,3,3,0,0,0,2.63-1.32,6.91,6.91,0,0,0,.07-6.71Z"/><path class="cls-1" d="M165.82,133.91h-4.14v-3.77h4.14Zm-4.14,1.86h4.14V151.4h-4.14Z"/><path class="cls-1" d="M179.13,141.38a3.62,3.62,0,0,0-.59-1.58,2.47,2.47,0,0,0-2.14-.95,2.82,2.82,0,0,0-2.83,2,8.51,8.51,0,0,0-.4,2.89,7.82,7.82,0,0,0,.4,2.76,2.73,2.73,0,0,0,2.76,1.95,2.44,2.44,0,0,0,2-.77,3.85,3.85,0,0,0,.73-2h4.17a6.84,6.84,0,0,1-1.35,3.53,6.56,6.56,0,0,1-5.7,2.68q-3.77,0-5.55-2.24a9,9,0,0,1-1.78-5.8,9.16,9.16,0,0,1,2-6.26,6.85,6.85,0,0,1,5.42-2.24,8.17,8.17,0,0,1,4.81,1.32q1.87,1.32,2.22,4.66Z"/><path class="cls-1" d="M192.3,141.89a6.45,6.45,0,0,0,1.63-.36,1.23,1.23,0,0,0,.88-1.16,1.37,1.37,0,0,0-.68-1.33,4.27,4.27,0,0,0-2-.37,2.6,2.6,0,0,0-2.08.72,3,3,0,0,0-.58,1.43h-3.94a6,6,0,0,1,1.15-3.37q1.63-2.06,5.59-2.06a10,10,0,0,1,4.58,1,3.9,3.9,0,0,1,2,3.84v7.17q0,.75,0,1.81a2.27,2.27,0,0,0,.24,1.09,1.46,1.46,0,0,0,.6.47v.6H195.3a4.56,4.56,0,0,1-.26-.89q-.07-.42-.11-.95a8.44,8.44,0,0,1-2,1.56,5.93,5.93,0,0,1-3,.76,5.18,5.18,0,0,1-3.53-1.21,4.31,4.31,0,0,1-1.39-3.43,4.45,4.45,0,0,1,2.24-4.17,10,10,0,0,1,3.61-1Zm2.5,1.91a4.56,4.56,0,0,1-.79.39,6.72,6.72,0,0,1-1.1.28l-.93.17a6.12,6.12,0,0,0-1.88.56,1.87,1.87,0,0,0-1,1.73,1.81,1.81,0,0,0,.59,1.51,2.24,2.24,0,0,0,1.43.47,4.27,4.27,0,0,0,2.47-.77,3.28,3.28,0,0,0,1.17-2.82Z"/></svg>