<svg id="Livello_1" data-name="Livello 1" xmlns="http://www.w3.org/2000/svg" viewBox="0 0 482.97 380.94"><defs><style>.cls-1{fill:#bf6147;}</style></defs><title>terapica_Tavola disegno 3 copia 2</title><path class="cls-1" d="M270,133.31a5.45,5.45,0,0,1,9,.17,22,22,0,0,0,8.54,7.29,33.71,33.71,0,0,0,8.62,3c2.89.61,4.64-.14,6-2.77,1.85-3.48,2.56-7.32,3.4-11.11,1.58-7.11,2.69-14.32,4.57-21.37a19.83,19.83,0,0,1,4.61-8.51c5-5.4,9.95-10.8,16-15.09a5.56,5.56,0,0,1,3.56-1c11.61.74,12.16,3,11.32,6.09a115.78,115.78,0,0,1-5.87,15.58c-4.49,10.25-8.63,20.62-10.75,31.67a53.94,53.94,0,0,0-1,9.52c-.08,6.73-1.86,13.18-3.37,19.66-3.07,13.18-6.6,26.24-10.75,39.13a12.76,12.76,0,0,1-4.87,6.79c-8.78,6.23-18.15,10.82-29.27,10.46-4.29-.14-8.16-1.61-10.78-5.09-10.56-14-17.07-29.65-17.66-47.43a22.91,22.91,0,0,1,2.41-10.46c4.36-9.45,10.25-18,16.21-26.44Z"/><path class="cls-1" d="M270.69,114.34A28.47,28.47,0,0,1,261.32,137c-10.54,9.93-17.7,22-22.87,35.41-3.17,8.22-4.67,16.8-6.08,25.44-1.9,11.63-4,23.23-7.44,34.55-1.07,3.55-1.22,3.57-3.7,1a147.89,147.89,0,0,1-17.39-22.88c-4.67-7.4-9.39-14.79-13.75-22.38s-3.3-6.46,2.19-10.54c6.81-5.06,13.76-9.91,20.22-15.43A56.58,56.58,0,0,0,226.27,145a199.15,199.15,0,0,0,15.35-38c1.27-4.57,0-8.82-.78-13.14-2.37-13.4-4.81-26.76-4.52-40.49.12-5.81-1.37-11.56-2.21-17.32-1.12-7.67-2.47-15.32-3.66-23a20.94,20.94,0,0,1,.7-9.67c1-3.17,2.29-3.91,5.47-3.15a17.21,17.21,0,0,1,12.94,11.79C251.72,18.23,253,24.64,254.5,31c3.15,13.28,5.51,26.72,8.14,40.11,1.42,7.22,3.53,19.09,4.3,26.41.37,3.54,2,6.73,2.78,10.13A34.59,34.59,0,0,1,270.69,114.34Z"/><path class="cls-1" d="M235.74,111.59c0,7-3.09,11-9.36,12.49a8,8,0,0,1-7.73-1.94c-3.43-3.15-6.15-6.79-7.12-11.48-2.69-13.07-6.93-25.71-10.31-38.59-2.06-7.85-3.45-15.87-5.55-23.71-2.41-9-6.42-17.44-9.52-26.2-1.34-3.79-2.73-7.57-3.8-11.45A6.23,6.23,0,0,1,184.11,4,15.13,15.13,0,0,1,189.87.4a5.34,5.34,0,0,1,6.08,1.37A62.6,62.6,0,0,1,207.83,20.5c2.74,6.39,3.88,13.34,6.67,19.7,8.36,19.11,12.79,39.43,18.38,59.39C234,103.65,235.91,107.53,235.74,111.59Z"/><path class="cls-1" d="M215.35,131.83c.26,7.1-5.71,9.92-10.67,10.7a4.65,4.65,0,0,1-4.21-1.89c-2.55-2.92-5-5.83-6.51-9.55-7.87-19.34-17.62-37.9-24.36-57.7a287.56,287.56,0,0,0-14.35-34.33,7.18,7.18,0,0,1,.57-7.51c3.94-6,11.81-7.77,16-2.33,1.41,2.27,2.87,4.51,4.13,6.86Q186.65,56,195.4,76.83c4.38,10.41,8.29,21,12.19,31.54a84.08,84.08,0,0,0,3.66,8.45C213.47,121.27,215.3,125.77,215.35,131.83Z"/><path class="cls-1" d="M198.14,151.66c.16,9.58-6,13-11,13.9a7.7,7.7,0,0,1-6.06-1.65,24.06,24.06,0,0,1-7.61-9c-7.41-15.4-17.5-29.18-26-43.9-3.69-6.37-7.47-12.7-10-19.65a18,18,0,0,1-1.49-7.29,5.06,5.06,0,0,1,1.74-3.65,10.17,10.17,0,0,1,14.87,1.33,82.42,82.42,0,0,1,5.83,9,200.38,200.38,0,0,0,17.36,25.37c2.43,3.06,4.48,6.4,6.74,9.59,3.41,4.81,6.72,9.64,10.87,13.95C196.76,143.25,197.93,148.22,198.14,151.66Z"/><path class="cls-1" d="M4.69,350.81a15.13,15.13,0,0,0,1.53,5.79,11.43,11.43,0,0,0,3.19,3.87,12.66,12.66,0,0,0,4.51,2.17,21.32,21.32,0,0,0,5.47.67,18.23,18.23,0,0,0,5.89-.85,11.15,11.15,0,0,0,4-2.31,9,9,0,0,0,2.31-3.37,11.08,11.08,0,0,0,.75-4A8,8,0,0,0,31,347.9a10.43,10.43,0,0,0-3.51-3,21.57,21.57,0,0,0-5-1.88q-2.81-.71-5.75-1.38T11,340a18.07,18.07,0,0,1-5-2.48,12,12,0,0,1-3.51-4,12.77,12.77,0,0,1-1.35-6.21,12.49,12.49,0,0,1,1.1-5.11,12.71,12.71,0,0,1,3.27-4.4A16,16,0,0,1,11,314.75a22.9,22.9,0,0,1,7.52-1.14,21.59,21.59,0,0,1,7.56,1.21,15,15,0,0,1,5.36,3.3A13.58,13.58,0,0,1,34.64,323a16.27,16.27,0,0,1,1.06,5.89H31.09a11.48,11.48,0,0,0-1-5,9.47,9.47,0,0,0-2.8-3.48,12,12,0,0,0-4-2,17.2,17.2,0,0,0-4.69-.64,16.48,16.48,0,0,0-6.21,1,10.92,10.92,0,0,0-4,2.66A9,9,0,0,0,6.25,325,8.69,8.69,0,0,0,6,329a6.93,6.93,0,0,0,2,4,12.53,12.53,0,0,0,3.83,2.45,28.8,28.8,0,0,0,5,1.56q2.73.6,5.57,1.28a57.21,57.21,0,0,1,5.5,1.6,16.92,16.92,0,0,1,4.72,2.48,11.45,11.45,0,0,1,3.3,4,13.51,13.51,0,0,1,1.24,6.14q0,7.1-4.9,11t-13.77,3.9a25.44,25.44,0,0,1-7.38-1,16.34,16.34,0,0,1-5.89-3.12,14.34,14.34,0,0,1-3.87-5.18A17.66,17.66,0,0,1,0,350.81Z"/><path class="cls-1" d="M58.35,366.21q-.78.14-2.06.5a10.61,10.61,0,0,1-2.84.36,6.77,6.77,0,0,1-4.86-1.6q-1.67-1.6-1.67-5.71v-26.9H41.74V329.3h5.18V319.08h4.26V329.3h6.89v3.55H51.18v25.2q0,1.35.07,2.34a3.91,3.91,0,0,0,.43,1.63,2,2,0,0,0,1.1.92,6.1,6.1,0,0,0,2.09.28,10.88,10.88,0,0,0,1.74-.14q.89-.14,1.74-.35Z"/><path class="cls-1" d="M90.08,329.3h4.26v36.77H90.08V361q-.85,1-1.92,2.06a14.51,14.51,0,0,1-2.45,2,14,14,0,0,1-3.23,1.49,13.74,13.74,0,0,1-4.26.6,16.21,16.21,0,0,1-6.18-1,10.09,10.09,0,0,1-4-2.87,11.38,11.38,0,0,1-2.2-4.29,20.11,20.11,0,0,1-.67-5.36V329.3h4.26v24.13q0,4.76,2.2,7.28t7.24,2.52a10.56,10.56,0,0,0,4.72-1,9.85,9.85,0,0,0,3.51-2.87,13.73,13.73,0,0,0,2.2-4.4,19.13,19.13,0,0,0,.78-5.61Z"/><path class="cls-1" d="M133,315h4.26v51.11H133v-6.46h-.14a11.55,11.55,0,0,1-2.38,3.23,14.42,14.42,0,0,1-3.19,2.31,17.19,17.19,0,0,1-3.58,1.42,14,14,0,0,1-3.62.5,17.53,17.53,0,0,1-7.6-1.49,14.13,14.13,0,0,1-5.15-4.08,16.64,16.64,0,0,1-2.95-6.14,30.07,30.07,0,0,1-.92-7.6,27.22,27.22,0,0,1,1-7.38,18.3,18.3,0,0,1,3-6.21,14.94,14.94,0,0,1,5.11-4.26,15.63,15.63,0,0,1,7.28-1.6,17,17,0,0,1,7.49,1.74,13.2,13.2,0,0,1,5.64,5.15Zm0,32.58a20.27,20.27,0,0,0-.85-5.93,15.36,15.36,0,0,0-2.45-4.9,12.06,12.06,0,0,0-3.9-3.34,10.84,10.84,0,0,0-5.22-1.24,11.86,11.86,0,0,0-5.75,1.31,11.33,11.33,0,0,0-4,3.58,15.48,15.48,0,0,0-2.27,5.29,24,24,0,0,0-.57,6.5,18.09,18.09,0,0,0,1,6.14,13.09,13.09,0,0,0,2.66,4.51,11.35,11.35,0,0,0,4,2.8,12.65,12.65,0,0,0,5,1,11.45,11.45,0,0,0,5.32-1.21,11.21,11.21,0,0,0,3.9-3.3,15.15,15.15,0,0,0,2.38-5A22.68,22.68,0,0,0,133,347.54Z"/><path class="cls-1" d="M148.43,321.28V315h4.69v6.32Zm.21,44.79V329.3h4.26v36.77Z"/><path class="cls-1" d="M178.39,367.07a19.15,19.15,0,0,1-6.64-1.28,14.84,14.84,0,0,1-5.39-3.62,17.35,17.35,0,0,1-3.66-6,24.13,24.13,0,0,1-1.35-8.45,25.94,25.94,0,0,1,1.06-7.56,17.87,17.87,0,0,1,3.19-6.14,15.18,15.18,0,0,1,5.32-4.15,17.11,17.11,0,0,1,7.45-1.53,17.29,17.29,0,0,1,7.52,1.53,15.37,15.37,0,0,1,5.32,4.12,17,17,0,0,1,3.16,6.14,27.17,27.17,0,0,1,1,7.59,24.61,24.61,0,0,1-1.21,8,17.91,17.91,0,0,1-3.44,6.1,15.17,15.17,0,0,1-5.4,3.94A17.24,17.24,0,0,1,178.39,367.07Zm12.49-19.38a25.15,25.15,0,0,0-.71-6.1,14.48,14.48,0,0,0-2.2-4.93,10.59,10.59,0,0,0-3.83-3.3,12.46,12.46,0,0,0-5.75-1.21,11.66,11.66,0,0,0-5.71,1.31,11.19,11.19,0,0,0-3.87,3.48,15.29,15.29,0,0,0-2.2,5,23.49,23.49,0,0,0-.71,5.79,22.91,22.91,0,0,0,.82,6.28,14.7,14.7,0,0,0,2.38,4.93,10.65,10.65,0,0,0,3.9,3.19,12.21,12.21,0,0,0,5.39,1.14,11.65,11.65,0,0,0,5.71-1.31,11.05,11.05,0,0,0,3.87-3.51,15.77,15.77,0,0,0,2.2-5A23.08,23.08,0,0,0,190.88,347.69Z"/><path class="cls-1" d="M240.65,315v9H225.36v42H214.62V324H199.26v-9Z"/><path class="cls-1" d="M265.48,329.06a15.37,15.37,0,0,1,6.53,5.59,18.58,18.58,0,0,1,3,7.81,48.31,48.31,0,0,1,.33,7.5H247.82q.23,5.69,4,8a10,10,0,0,0,5.45,1.42,7.67,7.67,0,0,0,7.52-4.33h10.08a12.33,12.33,0,0,1-3.66,6.83q-5.08,5.51-14.21,5.51a20.59,20.59,0,0,1-13.31-4.65q-5.76-4.65-5.77-15.13,0-9.82,5.2-15.05t13.51-5.24A21.52,21.52,0,0,1,265.48,329.06Zm-14.78,8.53a10.26,10.26,0,0,0-2.63,5.85h17a8.24,8.24,0,0,0-2.63-6,8.66,8.66,0,0,0-5.86-2A7.83,7.83,0,0,0,250.7,337.59Z"/><path class="cls-1" d="M301.32,327.41l.85.05v10.12q-.94-.1-1.66-.14l-1.18,0q-6,0-8,3.88a15.1,15.1,0,0,0-1.14,6.72v18.06h-9.95V328.29h9.43v6.58a20.92,20.92,0,0,1,4-5.16,10.85,10.85,0,0,1,7.21-2.32Z"/><path class="cls-1" d="M322.92,343.09a15.6,15.6,0,0,0,3.95-.87,3,3,0,0,0,2.13-2.81,3.32,3.32,0,0,0-1.63-3.21,10.32,10.32,0,0,0-4.8-.88q-3.55,0-5,1.73a7.15,7.15,0,0,0-1.41,3.47h-9.53a14.45,14.45,0,0,1,2.78-8.15q3.93-5,13.51-5A24.08,24.08,0,0,1,334,329.85q4.84,2.46,4.84,9.29v17.33q0,1.8.07,4.37a5.49,5.49,0,0,0,.59,2.63,3.53,3.53,0,0,0,1.46,1.14v1.46H330.18a11,11,0,0,1-.62-2.15q-.17-1-.28-2.29a20.42,20.42,0,0,1-4.74,3.78,14.33,14.33,0,0,1-7.25,1.84,12.51,12.51,0,0,1-8.52-2.93q-3.36-2.93-3.36-8.3,0-7,5.41-10.09a24.16,24.16,0,0,1,8.73-2.43Zm6,4.61a11,11,0,0,1-1.92,1,16.25,16.25,0,0,1-2.65.68l-2.25.42a14.8,14.8,0,0,0-4.54,1.35,4.51,4.51,0,0,0-2.33,4.19,4.38,4.38,0,0,0,1.43,3.66,5.42,5.42,0,0,0,3.47,1.13,10.32,10.32,0,0,0,6-1.87q2.73-1.87,2.83-6.83Z"/><path class="cls-1" d="M379.21,332.35q4.62,4.89,4.62,14.35,0,10-4.52,15.22a14.66,14.66,0,0,1-11.63,5.23,12.2,12.2,0,0,1-7.54-2.25,14.56,14.56,0,0,1-3.21-3.64v19.69h-9.77V328.29h9.46v5.58A15.89,15.89,0,0,1,360,330a12.62,12.62,0,0,1,7.88-2.53A14.94,14.94,0,0,1,379.21,332.35Zm-7.58,7.11q-2-3.36-6.53-3.36a7.43,7.43,0,0,0-7.46,5.09,19.14,19.14,0,0,0-1.05,6.86q0,6.59,3.53,9.25a8.11,8.11,0,0,0,5,1.56,7.23,7.23,0,0,0,6.36-3.19,16.7,16.7,0,0,0,.18-16.22Z"/><path class="cls-1" d="M401,323.79h-10v-9.12h10Zm-10,4.51h10v37.78h-10Z"/><path class="cls-1" d="M433.12,341.84A8.76,8.76,0,0,0,431.7,338a6,6,0,0,0-5.18-2.29q-5,0-6.85,5a20.57,20.57,0,0,0-1,7,18.91,18.91,0,0,0,1,6.67,6.61,6.61,0,0,0,6.67,4.71q3.47,0,4.93-1.87a9.31,9.31,0,0,0,1.77-4.85h10.09a16.53,16.53,0,0,1-3.26,8.53q-4.65,6.48-13.77,6.48t-13.43-5.41q-4.3-5.41-4.3-14,0-9.72,4.75-15.13t13.12-5.41q7.11,0,11.64,3.19t5.36,11.26Z"/><path class="cls-1" d="M465,343.09a15.6,15.6,0,0,0,3.95-.87,3,3,0,0,0,2.13-2.81,3.32,3.32,0,0,0-1.63-3.21,10.32,10.32,0,0,0-4.8-.88q-3.55,0-5,1.73a7.15,7.15,0,0,0-1.41,3.47h-9.53a14.45,14.45,0,0,1,2.78-8.15q3.93-5,13.51-5A24.08,24.08,0,0,1,476,329.85q4.84,2.46,4.84,9.29v17.33q0,1.8.07,4.37a5.49,5.49,0,0,0,.59,2.63,3.53,3.53,0,0,0,1.46,1.14v1.46H472.22a11,11,0,0,1-.62-2.15q-.17-1-.28-2.29a20.42,20.42,0,0,1-4.74,3.78,14.33,14.33,0,0,1-7.25,1.84,12.51,12.51,0,0,1-8.52-2.93q-3.36-2.93-3.36-8.3,0-7,5.41-10.09a24.16,24.16,0,0,1,8.73-2.43Zm6,4.61a11,11,0,0,1-1.92,1,16.25,16.25,0,0,1-2.65.68l-2.25.42a14.8,14.8,0,0,0-4.54,1.35,4.51,4.51,0,0,0-2.33,4.19,4.38,4.38,0,0,0,1.43,3.66,5.42,5.42,0,0,0,3.47,1.13,10.32,10.32,0,0,0,6-1.87q2.73-1.87,2.83-6.83Z"/></svg>