<svg id="Livello_1" data-name="Livello 1" xmlns="http://www.w3.org/2000/svg" viewBox="0 0 283.46 283.46"><defs><style>.cls-1{fill:#4d4945;}</style></defs><title>Tavola disegno 33</title><path class="cls-1" d="M206.51,215.14H178.1c-3.93,0-9-1.33-11.08-3.89L143.1,182a4.12,4.12,0,0,1,.05-5.77l1.56-1.56a6.32,6.32,0,0,1,8.94,0l13.12,12.18a58.45,58.45,0,0,0,2.5-10.31l.74-7.12V115.58a5.48,5.48,0,0,1,5.64-5.48,5.61,5.61,0,0,1,5.31,5.65v46.2a.88.88,0,0,0,1.75,0V110.28a5.43,5.43,0,0,1,1.66-3.93,5.5,5.5,0,0,1,4-1.54,5.61,5.61,0,0,1,5.31,5.65v51.49a.88.88,0,0,0,.88.88h.18a.88.88,0,0,0,.88-.88V118.08a5.48,5.48,0,0,1,11,0v43.87a.88.88,0,0,0,.88.88h.18a.88.88,0,0,0,.88-.88V123.28a5.61,5.61,0,0,1,5.31-5.64h0a5.48,5.48,0,0,1,5.64,5.47v79.1A13,13,0,0,1,206.51,215.14ZM149.18,175.7a3.46,3.46,0,0,0-2.46,1l-1.56,1.56a1.29,1.29,0,0,0,0,1.82l.09.1,24,29.26c1.29,1.57,5.27,2.85,8.89,2.85h28.41a10.12,10.12,0,0,0,10.1-10.1v-79.1a2.64,2.64,0,0,0-2.72-2.64h0a2.75,2.75,0,0,0-2.56,2.81v38.67a3.72,3.72,0,0,1-3.71,3.71h-.18a3.72,3.72,0,0,1-3.71-3.71V118.08a2.64,2.64,0,0,0-5.28,0v43.87a3.72,3.72,0,0,1-3.71,3.71h-.18a3.72,3.72,0,0,1-3.71-3.71V110.45a2.75,2.75,0,0,0-2.56-2.81,2.64,2.64,0,0,0-2.72,2.64v51.66a3.71,3.71,0,0,1-7.42,0v-46.2a2.75,2.75,0,0,0-2.56-2.81,2.56,2.56,0,0,0-1.92.75,2.62,2.62,0,0,0-.8,1.9v54.1l-.75,7.19c0,.12-1.76,12.31-4.5,13.34a1.74,1.74,0,0,1-1.82-.37l-14.09-13.08A3.5,3.5,0,0,0,149.18,175.7Z"/><path class="cls-1" d="M105.37,178.66H77A13,13,0,0,1,64,165.72V86.62a5.48,5.48,0,0,1,5.65-5.47A5.61,5.61,0,0,1,75,86.79v38.67a.88.88,0,0,0,.88.88H76a.88.88,0,0,0,.88-.88V81.59a5.48,5.48,0,0,1,11,0v43.87a.88.88,0,0,0,.88.88h.18a.88.88,0,0,0,.88-.88V74a5.61,5.61,0,0,1,5.31-5.65,5.48,5.48,0,0,1,5.65,5.48v51.66a.88.88,0,0,0,1.75,0V79.26a5.61,5.61,0,0,1,5.31-5.64,5.48,5.48,0,0,1,5.64,5.47V133l.74,7.12a58.48,58.48,0,0,0,2.5,10.31l13.16-12.22a6.32,6.32,0,0,1,8.9,0l1.56,1.56a4.12,4.12,0,0,1,.05,5.77l-23.92,29.21C114.36,177.32,109.29,178.66,105.37,178.66ZM69.49,84a2.64,2.64,0,0,0-2.64,2.64v79.1A10.12,10.12,0,0,0,77,175.82h28.41c3.62,0,7.6-1.28,8.89-2.85l24-29.36a1.29,1.29,0,0,0,0-1.82l-1.56-1.56a3.57,3.57,0,0,0-4.93,0l-14.13,13.12a1.73,1.73,0,0,1-1.82.37c-2.74-1-4.49-13.22-4.5-13.34l-.76-7.34v-54a2.62,2.62,0,0,0-.8-1.9,2.55,2.55,0,0,0-1.92-.74,2.75,2.75,0,0,0-2.56,2.81v46.2a3.71,3.71,0,0,1-7.42,0V73.8a2.62,2.62,0,0,0-.8-1.9,2.58,2.58,0,0,0-1.92-.75A2.75,2.75,0,0,0,92.62,74v51.49a3.72,3.72,0,0,1-3.71,3.71h-.18A3.72,3.72,0,0,1,85,125.46V81.59a2.64,2.64,0,0,0-5.28,0v43.87A3.72,3.72,0,0,1,76,129.17h-.18a3.72,3.72,0,0,1-3.71-3.71V86.79A2.75,2.75,0,0,0,69.57,84h-.08Z"/></svg>