<svg id="Livello_1" data-name="Livello 1" xmlns="http://www.w3.org/2000/svg" viewBox="0 0 77.87 221"><defs><style>.cls-1{fill:#d1d3d4;}</style></defs><title>terapica_Tavola disegno 3 copia 11</title><path class="cls-1" d="M38.93,181.61A24.34,24.34,0,0,1,14.63,157.3v-133a24.31,24.31,0,0,1,48.62,0v133A24.34,24.34,0,0,1,38.93,181.61Zm0-176.27a19,19,0,0,0-19,19v133a19,19,0,0,0,38,0v-133A19,19,0,0,0,38.93,5.33Z"/><path class="cls-1" d="M1.34,216.24a4.39,4.39,0,0,0,.44,1.66A3.27,3.27,0,0,0,2.7,219a3.62,3.62,0,0,0,1.29.63,6.29,6.29,0,0,0,1.57.19,5.25,5.25,0,0,0,1.69-.24,3.21,3.21,0,0,0,1.16-.67,2.53,2.53,0,0,0,.66-1,3.21,3.21,0,0,0,.21-1.16,2.3,2.3,0,0,0-.39-1.39,3.09,3.09,0,0,0-1-.86A6.39,6.39,0,0,0,6.46,214l-1.65-.4c-.56-.13-1.11-.28-1.65-.46a5.11,5.11,0,0,1-1.42-.71,3.41,3.41,0,0,1-1-1.15,3.67,3.67,0,0,1-.39-1.78A3.59,3.59,0,0,1,.66,208a3.65,3.65,0,0,1,.94-1.26,4.63,4.63,0,0,1,1.55-.88,6.52,6.52,0,0,1,2.16-.32,6.21,6.21,0,0,1,2.17.34,4.2,4.2,0,0,1,1.54.95,3.88,3.88,0,0,1,.92,1.39,4.67,4.67,0,0,1,.3,1.69H8.91a3.3,3.3,0,0,0-.29-1.45,2.77,2.77,0,0,0-.8-1,3.44,3.44,0,0,0-1.16-.57,5,5,0,0,0-1.34-.18,4.81,4.81,0,0,0-1.78.29,3.23,3.23,0,0,0-1.15.77,2.6,2.6,0,0,0-.59,1A2.52,2.52,0,0,0,1.73,210a2,2,0,0,0,.57,1.14,3.56,3.56,0,0,0,1.1.7,8.28,8.28,0,0,0,1.43.45l1.6.36c.54.13,1.07.29,1.58.46a4.76,4.76,0,0,1,1.35.71,3.29,3.29,0,0,1,.95,1.15,3.89,3.89,0,0,1,.36,1.76,3.8,3.8,0,0,1-1.4,3.16A6.17,6.17,0,0,1,5.31,221a7.25,7.25,0,0,1-2.12-.3,4.56,4.56,0,0,1-1.69-.9A4.13,4.13,0,0,1,.4,218.33a5.13,5.13,0,0,1-.4-2.09Z"/><path class="cls-1" d="M23.61,210.21A4.2,4.2,0,0,0,22,207.54a5.29,5.29,0,0,0-3-.79,4.63,4.63,0,0,0-2.28.53,4.56,4.56,0,0,0-1.58,1.42,6.27,6.27,0,0,0-.92,2.07,10,10,0,0,0-.29,2.47,11.44,11.44,0,0,0,.25,2.41,6.34,6.34,0,0,0,.85,2.1,4.51,4.51,0,0,0,1.59,1.49,5,5,0,0,0,2.5.57,4.63,4.63,0,0,0,1.71-.3,4.28,4.28,0,0,0,1.35-.84,4.94,4.94,0,0,0,1-1.27,6.48,6.48,0,0,0,.6-1.61H25.2a9.31,9.31,0,0,1-.71,2,5.73,5.73,0,0,1-1.23,1.66,5.56,5.56,0,0,1-1.85,1.13,7.18,7.18,0,0,1-2.55.42,6.19,6.19,0,0,1-2.89-.62,5.53,5.53,0,0,1-2-1.68,7.09,7.09,0,0,1-1.11-2.45,12.23,12.23,0,0,1-.35-3,10.81,10.81,0,0,1,.52-3.56,6.35,6.35,0,0,1,1.43-2.39A5.38,5.38,0,0,1,16.65,206a8.35,8.35,0,0,1,2.71-.42,7.06,7.06,0,0,1,2.09.29,5.11,5.11,0,0,1,1.71.89,4.79,4.79,0,0,1,1.22,1.46,6.09,6.09,0,0,1,.66,2Z"/><path class="cls-1" d="M29.27,214v6.66l-1.39,0V206h5.74a6.37,6.37,0,0,1,3.7.91,3.34,3.34,0,0,1,1.28,2.94A3.81,3.81,0,0,1,38,212a4.3,4.3,0,0,1-1.82,1.39,2.24,2.24,0,0,1,1,.65,2.9,2.9,0,0,1,.55,1,5,5,0,0,1,.23,1.16c0,.41.06.8.07,1.18,0,.55,0,1,.07,1.39a8.15,8.15,0,0,0,.12.9,2.09,2.09,0,0,0,.17.54.85.85,0,0,0,.24.3v.12l-1.53,0a2.64,2.64,0,0,1-.32-1c-.06-.44-.11-.89-.14-1.36s-.06-.94-.08-1.39a8.48,8.48,0,0,0-.11-1.1,2.28,2.28,0,0,0-.4-.94,1.81,1.81,0,0,0-.66-.54,2.8,2.8,0,0,0-.86-.24,7.61,7.61,0,0,0-1-.06Zm4.31-1.18a6.23,6.23,0,0,0,1.43-.16,3.31,3.31,0,0,0,1.15-.52,2.6,2.6,0,0,0,.77-.91,2.84,2.84,0,0,0,.28-1.32,2.76,2.76,0,0,0-.29-1.34,2.22,2.22,0,0,0-.79-.83,3.31,3.31,0,0,0-1.14-.43,7,7,0,0,0-1.33-.13h-4.4v5.64Z"/><path class="cls-1" d="M40.91,213.3a10.06,10.06,0,0,1,.44-3,7.26,7.26,0,0,1,1.29-2.45,6.16,6.16,0,0,1,2.12-1.66,6.62,6.62,0,0,1,2.91-.6,7.15,7.15,0,0,1,3,.59,6.28,6.28,0,0,1,2.16,1.65,7.24,7.24,0,0,1,1.3,2.46,10.16,10.16,0,0,1,.44,3,9.86,9.86,0,0,1-.44,3,7.38,7.38,0,0,1-1.29,2.45,6.12,6.12,0,0,1-2.14,1.66,7.56,7.56,0,0,1-5.95,0,6.07,6.07,0,0,1-2.14-1.66,7.13,7.13,0,0,1-1.28-2.45A10.11,10.11,0,0,1,40.91,213.3Zm6.84,6.51a5.25,5.25,0,0,0,2.46-.54,5,5,0,0,0,1.69-1.43,6.38,6.38,0,0,0,1-2.08,9.59,9.59,0,0,0,.31-2.46,9.29,9.29,0,0,0-.38-2.74,5.92,5.92,0,0,0-1.09-2.06A4.64,4.64,0,0,0,50,207.2a5.54,5.54,0,0,0-2.28-.45,5,5,0,0,0-2.43.55,4.89,4.89,0,0,0-1.69,1.45,6.17,6.17,0,0,0-1,2.09,9.41,9.41,0,0,0-.32,2.46,9.55,9.55,0,0,0,.32,2.48,6.12,6.12,0,0,0,1,2.08,4.76,4.76,0,0,0,1.69,1.42A5.33,5.33,0,0,0,47.74,219.82Z"/><path class="cls-1" d="M57.31,220.61V206h1.38v13.47h7.86v1.18Z"/><path class="cls-1" d="M68.63,220.61V206H70v13.47h7.86v1.18Z"/></svg>