<svg id="Livello_1" data-name="Livello 1" xmlns="http://www.w3.org/2000/svg" viewBox="0 0 263.39 263.39"><defs><style>.cls-1{fill:#bf6147;}</style></defs><title>mailTavola disegno 38</title><polygon class="cls-1" points="134.21 154.29 131.69 156.6 129.18 154.29 109.35 136.12 66.61 176.37 196.78 176.37 154.04 136.12 134.21 154.29"/><polygon class="cls-1" points="60.94 91.76 60.94 171.47 103.84 131.07 60.94 91.76"/><polygon class="cls-1" points="202.44 171.47 202.44 91.76 159.54 131.07 202.44 171.47"/><polygon class="cls-1" points="131.69 146.49 151.55 128.29 196.59 87.02 66.79 87.02 111.83 128.29 131.69 146.49"/><rect class="cls-1" x="206.17" y="83.29" height="96.8"/><path class="cls-1" d="M131.69,0A131.69,131.69,0,1,0,263.39,131.69,131.69,131.69,0,0,0,131.69,0Zm78.2,83.29V183.82H53.5V79.57H209.89Z"/></svg>