<svg id="Livello_1" data-name="Livello 1" xmlns="http://www.w3.org/2000/svg" viewBox="0 0 283.46 283.46"><defs><style>.cls-1{fill:#4d4945;}</style></defs><title>Tavola disegno 33 copia</title><path class="cls-1" d="M141.73,142.59c-18.36,0-30.24-40.85-30.24-55,0-4.23,1.4-7.52,4.15-9.79,6.06-5,16.47-3,16.91-2.94L132,77.66c-.1,0-9.55-1.79-14.57,2.35-2.09,1.73-3.11,4.21-3.11,7.6,0,14.7,12.15,52.15,27.41,52.15Z"/><path class="cls-1" d="M141.73,210.93c-3.76,0-6.48-1-8.33-3-3.6-3.91-3-11-2.35-19.19.83-10.12,1.86-22.71-4.9-32.8l2.36-1.58c7.31,10.91,6.24,24,5.37,34.6-.62,7.53-1.15,14,1.61,17,1.28,1.39,3.33,2.07,6.25,2.07a5.74,5.74,0,0,0,4.9-2.45c9.27-12.51-6.1-63.54-6.26-64.06l-.56-1.83h1.91c15.25,0,27.41-37.45,27.41-52.15,0-3.38-1-5.87-3.11-7.6-5-4.14-14.48-2.37-14.57-2.35l-.54-2.78c.44-.08,10.85-2,16.91,2.94,2.75,2.27,4.15,5.56,4.15,9.79,0,13.65-11.08,52.23-28.38,54.84,2.69,9.27,14.53,52.45,5.32,64.88A8.51,8.51,0,0,1,141.73,210.93Z"/><path class="cls-1" d="M124.41,153.75l-6,6a.47.47,0,0,0,.33.8H122a2.48,2.48,0,0,0,3.51,0l2.84-2.84,2.84-2.84a2.48,2.48,0,0,0,0-3.51h0v-3.21a.47.47,0,0,0-.8-.33Z"/><path class="cls-1" d="M134.88,72.66c-.83-.47-4.73.47-5.94,1.06a2.54,2.54,0,0,0,0,4.25c1.21.59,5.11,1.54,5.94,1.06s.95-3.19.95-3.19S135.71,73.13,134.88,72.66Z"/><path class="cls-1" d="M149.88,79c.83.47,4.73-.47,5.94-1.06a2.54,2.54,0,0,0,0-4.25c-1.21-.59-5.11-1.54-5.94-1.06s-.95,3.19-.95,3.19S149.06,78.57,149.88,79Z"/></svg>